<svg width="540" height="494" viewBox="0 0 540 494" fill="none" xmlns="http://www.w3.org/2000/svg">
<path d="M0 0V262C0 262 89.6 270 155.8 185C155.8 185 223.067 267.767 309.067 262.201V0" transform="translate(63.0221 359.959) scale(1.33333 -1.33333)" stroke="black" stroke-width="15" stroke-miterlimit="10"/>
<path d="M25.333 288H0V0H192.333" transform="translate(14 480.27) scale(1.33333 -1.33333)" stroke="black" stroke-width="20" stroke-miterlimit="10"/>
<path d="M167 288H192.334V0H0" transform="translate(269.999 480.27) scale(1.33333 -1.33333)" stroke="black" stroke-width="20" stroke-miterlimit="10"/>
<path d="M7.49821 210C9.12421 201.25 10.2052 192.5 11.1652 183.75C12.1002 175 12.8022 166.25 13.3752 157.5C14.4762 140 14.9872 122.5 14.9962 105C15.0082 87.5 14.4942 70 13.3952 52.5C12.8252 43.75 12.1222 35 11.1842 26.25C10.2202 17.5 9.13521 8.75 7.49821 0C5.86121 8.75 4.77621 17.5 3.81221 26.25C2.87421 35 2.17121 43.75 1.60121 52.5C0.502206 70 -0.0117948 87.5 0.000205236 105C0.00920524 122.5 0.521206 140 1.62121 157.5C2.19421 166.25 2.89621 175 3.83121 183.75C4.79121 192.5 5.87221 201.25 7.49821 210Z" transform="translate(260.224 415.759) scale(1.33333 -1.33333)" fill="black"/>
<path d="M0.461 56.83C4.06 56.537 7.38 56.161 10.806 55.75C14.201 55.324 17.587 54.883 20.96 54.371C27.709 53.371 34.422 52.21 41.101 50.883C54.455 48.23 67.682 44.941 80.634 40.762C87.117 38.707 93.504 36.329 99.793 33.747C106.088 31.18 112.238 28.238 118.198 24.979C121.199 23.391 124.082 21.579 126.973 19.812L131.186 16.955L132.234 16.24L133.249 15.471L135.273 13.933C140.626 9.791 145.61 5.175 149.897 0C145.145 4.756 139.813 8.833 134.197 12.397L132.079 13.715L131.021 14.373L129.928 14.976L125.563 17.38C122.573 18.842 119.617 20.338 116.548 21.612C110.456 24.239 104.228 26.535 97.88 28.457C91.54 30.393 85.14 32.12 78.66 33.526C65.721 36.407 52.594 38.398 39.421 39.759C32.834 40.44 26.232 40.957 19.633 41.313C16.334 41.504 13.035 41.623 9.744 41.727C6.48 41.815 3.105 41.876 0 41.837L0.461 56.83Z" transform="translate(70.3593 415.759) scale(1.33333 -1.33333)" fill="black"/>
<path d="M149.897 41.837C146.792 41.876 143.417 41.816 140.153 41.728C136.862 41.623 133.562 41.504 130.263 41.314C123.665 40.957 117.062 40.441 110.476 39.759C97.302 38.399 84.175 36.407 71.237 33.526C64.756 32.12 58.357 30.394 52.017 28.457C45.668 26.535 39.441 24.239 33.349 21.612C30.28 20.338 27.324 18.842 24.334 17.38L19.968 14.977L18.876 14.373L17.818 13.715L15.7 12.398C10.084 8.833 4.752 4.756 0 0C4.287 5.175 9.27 9.791 14.625 13.933L16.648 15.471L17.662 16.24L18.711 16.955L22.923 19.813C25.815 21.579 28.697 23.391 31.698 24.98C37.659 28.238 43.808 31.18 50.103 33.747C56.392 36.329 62.78 38.707 69.262 40.762C82.214 44.941 95.442 48.231 108.796 50.883C115.475 52.21 122.188 53.371 128.936 54.371C132.309 54.883 135.695 55.324 139.091 55.75C142.517 56.161 145.837 56.537 149.435 56.83L149.897 41.837Z" transform="translate(270.223 415.759) scale(1.33333 -1.33333)" fill="black"/>
</svg>
