<?xml version="1.0" standalone="no"?><!-- Generator: Gravit.io --><svg xmlns="http://www.w3.org/2000/svg" xmlns:xlink="http://www.w3.org/1999/xlink" style="isolation:isolate" viewBox="1118.5 15.5 19 19" width="19" height="19"><g><path d="M 1122.667 17 L 1133.333 17 C 1134.805 17 1136 18.195 1136 19.667 L 1136 30.333 C 1136 31.805 1134.805 33 1133.333 33 L 1122.667 33 C 1121.195 33 1120 31.805 1120 30.333 L 1120 19.667 C 1120 18.195 1121.195 17 1122.667 17 Z" style="fill:none;stroke:#5B1F7C;stroke-width:1;stroke-linecap:square;stroke-miterlimit:3;"/><g><path d=" M 1132.667 21.273 L 1131.727 20.333 L 1128 24.06 L 1124.273 20.333 L 1123.333 21.273 L 1127.06 25 L 1123.333 28.727 L 1124.273 29.667 L 1128 25.94 L 1131.727 29.667 L 1132.667 28.727 L 1128.94 25 L 1132.667 21.273 Z " fill="rgb(91,31,124)"/><path d=" M 1120 17 L 1136 17 L 1136 33 L 1120 33 L 1120 17 Z " fill="none"/></g></g></svg>